<svg xmlns="http://www.w3.org/2000/svg" width="85" height="13" viewBox="0 0 85 13">
  <path fill="000" fill-rule="evenodd" d="M3.361 2.595H0V.299h9.319v2.296H5.957v9.48H3.361v-9.48zm17.206 4.94c0 .698-.105 1.342-.316 1.93a4.245 4.245 0 0 1-.94 1.53c-.416.432-.934.77-1.556 1.014-.621.244-1.337.366-2.146.366-.821 0-1.542-.122-2.164-.366a4.307 4.307 0 0 1-1.555-1.015 4.245 4.245 0 0 1-.94-1.53 5.677 5.677 0 0 1-.317-1.93V.3h2.596v7.136c0 .366.058.704.175 1.015.116.31.28.579.49.806.211.228.464.405.758.533.294.127.613.19.957.19s.66-.063.948-.19a2.25 2.25 0 0 0 .749-.533c.21-.227.374-.496.49-.806.117-.31.176-.65.176-1.015V.299h2.595v7.236zM22.964.299h4.56c.598 0 1.167.059 1.705.175.538.116 1.01.31 1.414.582.405.272.727.638.965 1.098.239.46.358 1.034.358 1.722 0 .831-.216 1.538-.649 2.12-.432.582-1.065.951-1.897 1.106l2.995 4.974h-3.111L26.84 7.368H25.56v4.708h-2.596V.299zm2.596 4.874h1.53c.233 0 .48-.008.741-.025a2.32 2.32 0 0 0 .707-.15c.211-.083.386-.213.524-.39.14-.178.208-.428.208-.75 0-.299-.06-.537-.183-.714a1.22 1.22 0 0 0-.466-.408 2.068 2.068 0 0 0-.649-.191 5.296 5.296 0 0 0-.715-.05H25.56v2.678zM33.747.299h4.393c.51 0 1.023.036 1.539.109.516.072.979.216 1.39.432.41.216.743.518.998.906.255.389.383.904.383 1.547 0 .666-.186 1.217-.558 1.655-.372.438-.862.752-1.473.94v.033c.389.056.74.164 1.057.325.316.16.588.366.815.615.228.25.403.54.525.873.122.333.183.688.183 1.065 0 .62-.133 1.14-.4 1.555-.266.416-.61.751-1.031 1.006a4.526 4.526 0 0 1-1.423.55 7.619 7.619 0 0 1-1.573.166h-4.825V.299zm2.596 4.708h1.88c.2 0 .396-.023.59-.067.195-.044.37-.116.525-.216.155-.1.28-.233.374-.4.095-.166.142-.365.142-.598 0-.244-.053-.447-.158-.607a1.1 1.1 0 0 0-.408-.375 1.943 1.943 0 0 0-.566-.19 3.397 3.397 0 0 0-.616-.059h-1.763v2.512zm0 4.873h2.33c.199 0 .401-.022.607-.066.205-.045.39-.122.557-.233.166-.111.302-.255.408-.433a1.25 1.25 0 0 0 .158-.649c0-.277-.07-.501-.208-.673a1.319 1.319 0 0 0-.524-.391 2.686 2.686 0 0 0-.683-.183 5.07 5.07 0 0 0-.682-.05h-1.963V9.88zm7.554-3.693c0-.942.158-1.796.475-2.561a5.618 5.618 0 0 1 1.322-1.954 5.828 5.828 0 0 1 2.014-1.24C48.484.144 49.333 0 50.254 0c.92 0 1.77.144 2.546.432a5.828 5.828 0 0 1 2.013 1.24 5.618 5.618 0 0 1 1.323 1.954c.316.765.474 1.619.474 2.562 0 .942-.158 1.796-.474 2.561a5.618 5.618 0 0 1-1.323 1.954 5.828 5.828 0 0 1-2.013 1.24c-.777.288-1.625.432-2.546.432-.92 0-1.77-.144-2.546-.432a5.828 5.828 0 0 1-2.014-1.24 5.618 5.618 0 0 1-1.322-1.954c-.317-.765-.475-1.619-.475-2.562zm2.696 0c0 .555.086 1.062.258 1.522a3.38 3.38 0 0 0 1.897 1.988c.45.189.951.283 1.506.283s1.057-.094 1.506-.283a3.38 3.38 0 0 0 1.897-1.988c.172-.46.258-.967.258-1.521 0-.544-.086-1.048-.258-1.514a3.47 3.47 0 0 0-.74-1.206 3.38 3.38 0 0 0-1.157-.79 3.857 3.857 0 0 0-1.506-.283c-.555 0-1.057.094-1.506.283a3.38 3.38 0 0 0-1.157.79 3.47 3.47 0 0 0-.74 1.206c-.172.466-.258.97-.258 1.513zm11.515 4.458c0-.21.039-.41.117-.599a1.486 1.486 0 0 1 .815-.815c.189-.077.388-.116.599-.116.21 0 .41.039.6.116a1.486 1.486 0 0 1 .814.815c.078.189.117.388.117.6 0 .21-.039.41-.117.598a1.486 1.486 0 0 1-.815.815 1.558 1.558 0 0 1-.599.116c-.21 0-.41-.038-.599-.116a1.486 1.486 0 0 1-.815-.815 1.557 1.557 0 0 1-.117-.599zM67.178.3h2.146l5.125 11.777H71.52L70.505 9.58H65.93l-.982 2.495h-2.862L67.177.299zm.998 3.427l-1.432 3.66h2.88l-1.448-3.66zm6.839 5.954l5.974-7.085H75.23V.299h8.903v2.296L78.276 9.68h6.057v2.396h-9.318V9.68z"/>
</svg>
